<svg xmlns="http://www.w3.org/2000/svg" viewBox="0 0 430 565" role="img" aria-labelledby="title desc">
  <title id="title">SANAD INVEST</title>
  <desc id="desc">SANAD INVEST logo with a palm tree, clear upward arrow, and investment bars.</desc>
  <rect width="430" height="565" fill="#ffffff"/>

  <g fill="#0b5948">
    <path d="M214 45c18 30 18 58 0 88-17-30-17-58 0-88z"/>
    <path d="M203 122h29v149h-29z"/>
    <path d="M213 121c-34-45-77-68-130-57 52 12 94 31 127 70z"/>
    <path d="M216 121c35-45 78-68 131-57-52 12-94 31-128 70z"/>
    <path d="M212 143c-52-38-105-47-159-21 61 4 110 16 158 37z"/>
    <path d="M218 143c52-38 105-47 159-21-61 4-110 16-158 37z"/>
    <path d="M211 170c-57-26-108-24-153 5 55-4 102 2 151 14z"/>
    <path d="M219 170c57-26 108-24 153 5-55-4-102 2-151 14z"/>
    <path d="M211 198c-45-13-84-8-119 12 43-1 81 5 118 20z"/>
    <path d="M219 198c45-13 84-8 119 12-43-1-81 5-118 20z"/>
  </g>

  <g fill="#0b5948">
    <path d="M135 307h35v44h-35z"/>
    <path d="M188 279h35v72h-35z"/>
    <path d="M241 239h36v112h-36z"/>
  </g>

  <g fill="none" stroke="#0b5948" stroke-width="13" stroke-linecap="round" stroke-linejoin="round">
    <path d="M116 291c55-30 101-65 142-119"/>
  </g>
  <path d="M246 164l63-35-12 71-19-23-27 31-23-18 31-35z" fill="#0b5948"/>

  <text x="215" y="438" text-anchor="middle" font-family="Arial Black, Arial, Helvetica, sans-serif" font-size="86" font-weight="900" letter-spacing="2" fill="#0b5948">SANAD</text>
  <text x="215" y="515" text-anchor="middle" font-family="Arial, Helvetica, sans-serif" font-size="48" font-weight="800" letter-spacing="12" fill="#0b5948">INVEST</text>
</svg>
