<svg xmlns="http://www.w3.org/2000/svg" viewBox="0 0 520 520" role="img" aria-labelledby="title desc">
  <title id="title">SANAD Invest logo</title>
  <desc id="desc">Palm tree, rising investment bars, arrow, and SANAD INVEST wordmark.</desc>
  <rect width="520" height="520" rx="40" fill="#ffffff"/>
  <g fill="#0d5a49">
    <path d="M262 26c19 28 18 62 2 89 23-33 68-47 111-35-41 13-75 33-96 61 40-24 93-24 135-3-55 5-100 20-132 52 31-11 73-6 109 15-46 2-85 12-119 35v75h-34v-74c-38-22-78-32-122-35 36-21 77-26 109-15-32-32-77-47-133-52 43-21 96-21 136 3-21-28-56-48-97-61 43-12 88 2 111 35-16-27-17-61 19-89z"/>
  </g>
  <g fill="#0d5a49">
    <path d="M155 317h41v48h-41z"/>
    <path d="M218 279h41v86h-41z"/>
    <path d="M281 226h42v139h-42z"/>
    <path d="M137 296c89-37 151-89 203-161l-24-7 64-32-10 70-16-18c-55 75-123 130-214 162z"/>
  </g>
  <text x="260" y="432" text-anchor="middle" font-family="Arial, Helvetica, sans-serif" font-size="84" font-weight="900" letter-spacing="8" fill="#0d5a49">SANAD</text>
  <text x="260" y="488" text-anchor="middle" font-family="Arial, Helvetica, sans-serif" font-size="48" font-weight="800" letter-spacing="14" fill="#0d5a49">INVEST</text>
</svg>
